<mxfile host="app.diagrams.net" modified="2021-08-31T06:05:54.989Z" agent="5.0 (Windows)" etag="5tpSfxNdDwRsTzQF6dol" version="15.0.3" type="github">
  <diagram id="nfT71_-IPyRZFanoregO" name="Page1">
    <mxGraphModel dx="1508" dy="437" grid="1" gridSize="10" guides="1" tooltips="1" connect="1" arrows="1" fold="1" page="1" pageScale="1" pageWidth="850" pageHeight="1100" math="0" shadow="0">
      <root>
        <mxCell id="p9SXIOguWRCFXc3_EY1H-0" />
        <mxCell id="p9SXIOguWRCFXc3_EY1H-1" parent="p9SXIOguWRCFXc3_EY1H-0" />
        <mxCell id="pGd8FTcYEc2tg5zaIXxq-0" value="2006" style="shape=step;perimeter=stepPerimeter;whiteSpace=wrap;html=1;fixedSize=1;size=10;direction=south;fillColor=#10739E;strokeColor=none;rounded=0;fontColor=#FFFFFF;fontFamily=Noto Sans JP;fontSource=https%3A%2F%2Ffonts.googleapis.com%2Fcss%3Ffamily%3DNoto%2BSans%2BJP;opacity=80;" parent="p9SXIOguWRCFXc3_EY1H-1" vertex="1">
          <mxGeometry x="-780" y="150" width="70" height="80" as="geometry" />
        </mxCell>
        <mxCell id="pGd8FTcYEc2tg5zaIXxq-1" value="&lt;font style=&quot;font-size: 10px&quot;&gt;&lt;font color=&quot;#10739E&quot;&gt;&lt;b&gt;大学&lt;/b&gt;&lt;/font&gt;&lt;br&gt;&lt;br&gt;&lt;font size=&quot;1&quot;&gt;農業産業技術研究所　三中さんより大統計曼荼羅を受け取る&lt;strike&gt;（入信）&lt;/strike&gt;&lt;br&gt;&lt;/font&gt;&lt;/font&gt;" style="rounded=1;strokeColor=none;fillColor=#DDDDDD;align=center;arcSize=12;verticalAlign=top;whiteSpace=wrap;html=1;fontSize=12;opacity=60;fontFamily=Noto Sans JP;fontSource=https%3A%2F%2Ffonts.googleapis.com%2Fcss%3Ffamily%3DNoto%2BSans%2BJP;" parent="p9SXIOguWRCFXc3_EY1H-1" vertex="1">
          <mxGeometry x="-680" y="150" width="440" height="70" as="geometry" />
        </mxCell>
        <mxCell id="pGd8FTcYEc2tg5zaIXxq-2" value="&lt;div&gt;2007&lt;/div&gt;&lt;div&gt;&lt;br&gt;&lt;/div&gt;&lt;div&gt;2012&lt;br&gt;&lt;/div&gt;" style="shape=step;perimeter=stepPerimeter;whiteSpace=wrap;html=1;fixedSize=1;size=10;direction=south;fillColor=#10739E;strokeColor=none;rounded=0;fontColor=#FFFFFF;fontFamily=Noto Sans JP;fontSource=https%3A%2F%2Ffonts.googleapis.com%2Fcss%3Ffamily%3DNoto%2BSans%2BJP;opacity=80;" parent="p9SXIOguWRCFXc3_EY1H-1" vertex="1">
          <mxGeometry x="-780" y="230" width="70" height="80" as="geometry" />
        </mxCell>
        <mxCell id="pGd8FTcYEc2tg5zaIXxq-3" value="&lt;font style=&quot;font-size: 10px&quot;&gt;&lt;font color=&quot;#10739E&quot;&gt;&lt;b&gt;研究&lt;/b&gt;&lt;/font&gt;&lt;br&gt;&lt;br&gt;&lt;/font&gt;&lt;div&gt;&lt;font style=&quot;font-size: 10px&quot;&gt;&lt;font size=&quot;1&quot;&gt;ほぼ実験屋。ときどきRを使いつつもデータサイエンス（データマイニング）&lt;/font&gt;&lt;/font&gt;&lt;/div&gt;&lt;div&gt;&lt;font style=&quot;font-size: 10px&quot;&gt;&lt;font size=&quot;1&quot;&gt;からは一線を引く。タンパク質モデリングはそこそこ。&lt;br&gt;&lt;/font&gt;&lt;/font&gt;&lt;/div&gt;" style="rounded=1;strokeColor=none;fillColor=#DDDDDD;align=center;arcSize=12;verticalAlign=top;whiteSpace=wrap;html=1;fontSize=12;opacity=60;fontFamily=Noto Sans JP;fontSource=https%3A%2F%2Ffonts.googleapis.com%2Fcss%3Ffamily%3DNoto%2BSans%2BJP;" parent="p9SXIOguWRCFXc3_EY1H-1" vertex="1">
          <mxGeometry x="-680" y="230" width="440" height="70" as="geometry" />
        </mxCell>
        <mxCell id="pGd8FTcYEc2tg5zaIXxq-4" value="&lt;div&gt;2013&lt;/div&gt;&lt;div&gt;&lt;br&gt;&lt;/div&gt;&lt;div&gt;2016&lt;br&gt;&lt;/div&gt;" style="shape=step;perimeter=stepPerimeter;whiteSpace=wrap;html=1;fixedSize=1;size=10;direction=south;fillColor=#10739E;strokeColor=none;rounded=0;fontColor=#FFFFFF;fontFamily=Noto Sans JP;fontSource=https%3A%2F%2Ffonts.googleapis.com%2Fcss%3Ffamily%3DNoto%2BSans%2BJP;opacity=80;" parent="p9SXIOguWRCFXc3_EY1H-1" vertex="1">
          <mxGeometry x="-780" y="310" width="70" height="80" as="geometry" />
        </mxCell>
        <mxCell id="pGd8FTcYEc2tg5zaIXxq-5" value="&lt;font style=&quot;font-size: 10px&quot;&gt;&lt;font color=&quot;#10739E&quot;&gt;&lt;b&gt;生産性改善 / 品質&lt;/b&gt;&lt;/font&gt;&lt;br&gt;&lt;br&gt;&lt;/font&gt;&lt;div&gt;&lt;font style=&quot;font-size: 10px&quot;&gt;&lt;font size=&quot;1&quot;&gt;Pythonに手を出す。副業で生産管理システムを自作。Kaggleでメダル獲得。&lt;/font&gt;&lt;/font&gt;&lt;/div&gt;&lt;div&gt;&lt;font style=&quot;font-size: 10px&quot;&gt;&lt;font size=&quot;1&quot;&gt;本業ではデータを駆使した工場の売上改善。&lt;/font&gt;&lt;/font&gt;&lt;/div&gt;" style="rounded=1;strokeColor=none;fillColor=#DDDDDD;align=center;arcSize=12;verticalAlign=top;whiteSpace=wrap;html=1;fontSize=12;opacity=60;fontFamily=Noto Sans JP;fontSource=https%3A%2F%2Ffonts.googleapis.com%2Fcss%3Ffamily%3DNoto%2BSans%2BJP;" parent="p9SXIOguWRCFXc3_EY1H-1" vertex="1">
          <mxGeometry x="-680" y="310" width="440" height="70" as="geometry" />
        </mxCell>
        <mxCell id="pGd8FTcYEc2tg5zaIXxq-6" value="&lt;div&gt;2017&lt;/div&gt;&lt;div&gt;&lt;br&gt;&lt;/div&gt;&lt;div&gt;2020&lt;br&gt;&lt;/div&gt;" style="shape=step;perimeter=stepPerimeter;whiteSpace=wrap;html=1;fixedSize=1;size=10;direction=south;fillColor=#10739E;strokeColor=none;rounded=0;fontColor=#FFFFFF;fontFamily=Noto Sans JP;fontSource=https%3A%2F%2Ffonts.googleapis.com%2Fcss%3Ffamily%3DNoto%2BSans%2BJP;opacity=80;" parent="p9SXIOguWRCFXc3_EY1H-1" vertex="1">
          <mxGeometry x="-780" y="390" width="70" height="80" as="geometry" />
        </mxCell>
        <mxCell id="pGd8FTcYEc2tg5zaIXxq-7" value="&lt;font style=&quot;font-size: 10px&quot;&gt;&lt;font color=&quot;#10739E&quot;&gt;&lt;b&gt;医療経済&lt;/b&gt;&lt;/font&gt;&lt;br&gt;&lt;br&gt;&lt;/font&gt;&lt;div&gt;&lt;font style=&quot;font-size: 10px&quot;&gt;&lt;font size=&quot;1&quot;&gt;HEORでモデル分析、NMA、レセプトデータ解析。&lt;/font&gt;&lt;/font&gt;&lt;/div&gt;&lt;div&gt;&lt;font style=&quot;font-size: 10px&quot;&gt;&lt;font size=&quot;1&quot;&gt;NDB視覚化アプリ作成など。&lt;/font&gt;&lt;/font&gt;&lt;font style=&quot;font-size: 10px&quot;&gt;&lt;font size=&quot;1&quot;&gt;NTT DATA のAIコンサル兼任。&lt;/font&gt;&lt;/font&gt;&lt;/div&gt;" style="rounded=1;strokeColor=none;fillColor=#DDDDDD;align=center;arcSize=12;verticalAlign=top;whiteSpace=wrap;html=1;fontSize=12;opacity=60;fontFamily=Noto Sans JP;fontSource=https%3A%2F%2Ffonts.googleapis.com%2Fcss%3Ffamily%3DNoto%2BSans%2BJP;" parent="p9SXIOguWRCFXc3_EY1H-1" vertex="1">
          <mxGeometry x="-680" y="390" width="440" height="70" as="geometry" />
        </mxCell>
      </root>
    </mxGraphModel>
  </diagram>
</mxfile>
